<svg width="90" height="90" viewBox="0 0 90 90" fill="none" xmlns="http://www.w3.org/2000/svg">
<rect width="90" height="90" rx="45" fill="#006FDD"/>
<circle cx="45" cy="45" r="45" fill="#006FDD"/>
<path d="M38.8954 33.4767C35.3622 36.6311 33.0338 40.0693 33.0338 45C33.0338 48.3716 34.174 50.8793 36.0191 53.2269L44.0742 47.1519V33.4767H48.9323V56.6718H44.0742V53.0057L39.2141 56.6687L39.2151 56.6718H32.6506C29.87 53.5296 28.1758 49.4619 28.1758 45C28.1758 40.6076 29.8162 36.5979 32.5204 33.4767H38.8954Z" fill="white"/>
<path fill-rule="evenodd" clip-rule="evenodd" d="M45.8517 20C56.4537 20 65.5564 26.1769 69.5448 35.0092C69.6759 35.2799 69.8182 35.574 69.9682 35.9142C69.9768 35.9348 69.9914 35.9447 70 35.9654L69.9661 35.992L69.9682 35.9941L66.0111 39.0848V39.0817L58.3435 45.0737L69.7787 54.01L69.7692 54.0356L69.9068 54.1441C66.1306 63.4238 56.7898 70 45.8517 70C31.5752 70 20.0001 58.8072 20 45C20 31.1939 31.5752 20 45.8517 20ZM45.8517 24.6171C34.2287 24.6171 24.7723 33.7599 24.7723 45C24.7724 56.2411 34.2287 65.3839 45.8517 65.3839C53.5938 65.3839 60.3323 61.4126 63.9849 55.4146L55.609 48.8698V56.6718H50.751V33.4767H55.609V41.2776L64.0209 34.7041C60.3598 28.675 53.5907 24.6171 45.8517 24.6171Z" fill="white"/>
</svg>
