<svg width="289" height="45" viewBox="0 0 289 45" fill="white" xmlns="http://www.w3.org/2000/svg">
    <path
        d="M16.4086 12.129C13.3404 14.968 11.3184 18.0624 11.3184 22.5C11.3185 25.5344 12.3086 27.7914 13.9109 29.9042L20.9058 24.4367V12.129H25.1245V33.0046H20.9058V29.7052L16.6853 33.0018C16.6857 33.0022 16.6862 33.0036 16.6862 33.0046H10.9857C8.57101 30.1767 7.0998 26.5157 7.09977 22.5C7.09977 18.5468 8.52429 14.9381 10.8726 12.129H16.4086Z" />
    <path fill-rule="evenodd" clip-rule="evenodd"
        d="M22.4494 0C31.6561 3.03561e-05 39.5607 5.55919 43.0242 13.5083C43.1381 13.7519 43.2617 14.0166 43.392 14.3228C43.3994 14.3413 43.4121 14.3502 43.4195 14.3689L43.3901 14.3928C43.3903 14.394 43.3918 14.3945 43.392 14.3947L39.9556 17.1763V17.1735L33.2971 22.5663L43.2274 30.609L43.2191 30.6321L43.3386 30.7297C40.0594 39.0814 31.9479 45 22.4494 45C10.0518 45 6.21078e-05 34.9265 0 22.5C0 10.0745 10.0518 0 22.4494 0ZM22.4494 4.15541C12.3561 4.15541 4.14421 12.3839 4.14421 22.5C4.14427 32.617 12.3561 40.8455 22.4494 40.8455C29.1726 40.8455 35.0242 37.2714 38.1961 31.8732L30.9226 25.9828V33.0046H26.7039V12.129H30.9226V19.1499L38.2273 13.2337C35.0481 7.80749 29.1698 4.15543 22.4494 4.15541Z" />
    <path
        d="M75.1309 37.6087L75.6567 39.5289H75.744L76.3223 37.6087L78.1462 32.4066H79.9866L76.1476 42.9979C75.7094 44.187 75.1644 44.6452 73.7464 44.6453H72.6405V43.1324H74.184L74.7089 41.6379L71.3967 32.4066H73.307L75.1309 37.6087Z" />
    <path fill-rule="evenodd" clip-rule="evenodd"
        d="M193.185 32.2002C195.482 32.2002 196.812 33.9175 196.812 36.8256C196.812 39.7326 195.482 41.449 193.185 41.449C191.976 41.449 191.012 40.8204 190.626 39.7832H190.539V44.6443H188.626V32.4048H190.539V33.8661H190.626C191.012 32.8122 191.976 32.2003 193.185 32.2002ZM192.607 33.7988C191.45 33.7989 190.539 34.4108 190.539 35.3127V38.3385C190.539 39.2382 191.45 39.8522 192.607 39.8523C193.922 39.8523 194.798 38.95 194.798 37.5903V36.059C194.798 34.6991 193.922 33.7988 192.607 33.7988Z" />
    <path fill-rule="evenodd" clip-rule="evenodd"
        d="M285.372 32.2002C287.668 32.2002 289 33.9175 289 36.8256C289 39.7326 287.668 41.449 285.372 41.449C284.162 41.4489 283.198 40.8205 282.811 39.7832H282.725V44.6443H280.814V32.4048H282.725V33.8661H282.811C283.198 32.8121 284.162 32.2004 285.372 32.2002ZM284.793 33.7988C283.637 33.7988 282.725 34.4108 282.725 35.3127V38.3385C282.725 39.2382 283.637 39.8523 284.793 39.8523C286.109 39.8522 286.985 38.95 286.985 37.5903V36.059C286.985 34.6992 286.109 33.7989 284.793 33.7988Z" />
    <path
        d="M241.54 39.7334H245.204V32.4066H247.114V39.7334H248.656V43.6262H246.922V41.2463H239.629V32.4066H241.54V39.7334Z" />
    <path fill-rule="evenodd" clip-rule="evenodd"
        d="M106.681 32.2039C109.222 32.204 110.87 34.0042 110.87 36.8256C110.87 39.6482 109.222 41.4517 106.681 41.4518C104.137 41.4518 102.491 39.6483 102.491 36.8256C102.491 34.0041 104.138 32.2039 106.681 32.2039ZM106.681 33.7316C105.383 33.7316 104.506 34.5149 104.506 36.0792V37.5746C104.506 39.1391 105.383 39.9205 106.681 39.9205C107.978 39.9204 108.854 39.139 108.854 37.5746V36.0792C108.854 34.515 107.978 33.7317 106.681 33.7316Z" />
    <path fill-rule="evenodd" clip-rule="evenodd"
        d="M65.7328 32.2002C68.081 32.2003 69.3962 33.3219 69.3963 35.2951V39.7316H70.3597V41.2445H69.2905C68.2916 41.2445 67.7656 40.6338 67.6432 39.7657H67.5558C67.2038 40.8711 66.223 41.449 64.8898 41.449C63.0148 41.4489 61.9462 40.4126 61.9462 38.813C61.9464 37.0631 63.2963 36.1622 65.8386 36.1622H67.485V35.4122C67.485 34.342 66.8893 33.7131 65.6087 33.7131C64.5399 33.7132 63.8918 34.2241 63.4373 34.9201L62.2956 33.9168C62.8927 32.932 63.9615 32.2002 65.7328 32.2002ZM65.8726 37.3517C64.5397 37.3517 63.8915 37.7772 63.8915 38.5439V38.8489C63.8917 39.6313 64.4872 40.0374 65.4331 40.0375C66.6086 40.0375 67.485 39.4933 67.485 38.6278V37.3517H65.8726Z" />
    <path fill-rule="evenodd" clip-rule="evenodd"
        d="M160.899 32.2002C163.582 32.2003 164.947 34.1548 164.947 36.6026V37.3001H158.69V37.5885C158.69 38.9498 159.55 39.9186 161.092 39.9186C162.213 39.9186 162.967 39.407 163.491 38.5928L164.614 39.6625C163.932 40.7339 162.598 41.448 160.899 41.4481C158.304 41.4481 156.708 39.6463 156.708 36.8237C156.708 34.0021 158.304 32.2002 160.899 32.2002ZM160.899 33.6459C159.584 33.6459 158.69 34.5967 158.69 35.9567V36.0756H162.932V35.9051C162.932 34.5452 162.161 33.646 160.899 33.6459Z" />
    <path fill-rule="evenodd" clip-rule="evenodd"
        d="M182.021 32.2002C184.702 32.2003 186.069 34.1548 186.069 36.6026V37.3001H179.811V37.5885C179.811 38.9497 180.671 39.9185 182.212 39.9186C183.335 39.9186 184.089 39.4071 184.613 38.5928L185.736 39.6625C185.054 40.734 183.719 41.4481 182.021 41.4481C179.426 41.4481 177.83 39.6463 177.83 36.8237C177.83 34.0021 179.426 32.2002 182.021 32.2002ZM182.021 33.6459C180.705 33.6459 179.811 34.5967 179.811 35.9567V36.0756H184.053V35.9051C184.053 34.5452 183.283 33.646 182.021 33.6459Z" />
    <path fill-rule="evenodd" clip-rule="evenodd"
        d="M254.409 32.2002C257.091 32.2002 258.459 34.1548 258.459 36.6026V37.3001H252.199V37.5885C252.199 38.9498 253.059 39.9186 254.602 39.9186C255.723 39.9186 256.477 39.4071 257.003 38.5928L258.125 39.6625C257.442 40.734 256.109 41.4481 254.409 41.4481C251.815 41.448 250.219 39.6462 250.219 36.8237C250.219 34.0022 251.815 32.2004 254.409 32.2002ZM254.409 33.6459C253.094 33.646 252.199 34.5968 252.199 35.9567V36.0756H256.442V35.9051C256.442 34.5452 255.672 33.6459 254.409 33.6459Z" />
    <path
        d="M143.338 32.4066C144.162 32.4067 144.706 32.7466 145.11 33.562L146.284 35.977H147.703V32.4066H149.615V35.977H151.034L152.207 33.562C152.612 32.7467 153.155 32.4067 153.979 32.4066H154.908V33.9195H153.89L153.032 35.7374C152.786 36.2315 152.436 36.5363 151.998 36.6569V36.7251C152.436 36.8102 152.822 37.0656 153.067 37.5921L154.068 39.7353H155.083V41.2472H153.996C153.207 41.2472 152.664 40.9406 152.225 40.0236L151.034 37.4724H149.615V41.2472H147.703V37.4724H146.284L145.091 40.0236C144.652 40.9405 144.109 41.2472 143.321 41.2472H142.234V39.7353H143.251L144.249 37.5921C144.495 37.0656 144.88 36.8103 145.32 36.7251V36.6569C144.88 36.5363 144.53 36.2315 144.284 35.7374L143.426 33.9195H142.41V32.4066H143.338Z" />
    <path d="M278.654 33.9195H275.746V41.2472H273.832V33.9195H270.922V32.4066H278.654V33.9195Z" />
    <path
        d="M53.5981 35.9595H57.5253V32.4066H59.4356V41.2463H57.5253V37.4724H53.5981V41.2463H51.6868V32.4066H53.5981V35.9595Z" />
    <path
        d="M83.4266 35.3993C83.4268 36.3852 83.9532 36.8431 85.1283 36.8431C86.3184 36.843 87.0909 36.4868 87.091 35.8581V32.4066H89.0004V41.2463H87.091V37.3194H87.0027C86.4933 37.9819 85.74 38.4241 84.4609 38.4241C82.533 38.4241 81.5164 37.4726 81.5163 35.5181V32.4066H83.4266V35.3993Z" />
    <path
        d="M94.0841 35.9595H98.0114V32.4066H99.9226V41.2463H98.0114V37.4724H94.0841V41.2463H92.1729V32.4066H94.0841V35.9595Z" />
    <path
        d="M122.944 36.7251L122.769 38.8148H122.838L123.926 36.9278L127.082 32.4066H128.818V41.2463H126.942V36.9278L127.116 34.8381H127.047L125.96 36.7251L122.805 41.2463H121.068V32.4066H122.944V36.7251Z" />
    <path
        d="M133.908 35.9595H137.836V32.4066H139.746V41.2463H137.836V37.4724H133.908V41.2463H131.997V32.4066H133.908V35.9595Z" />
    <path
        d="M169.429 35.9595H173.355V32.4066H175.268V41.2463H173.355V37.4724H169.429V41.2463H167.519V32.4066H169.429V35.9595Z" />
    <path
        d="M201.348 35.9595H205.275V32.4066H207.185V41.2463H205.275V37.4724H201.348V41.2463H199.437V32.4066H201.348V35.9595Z" />
    <path fill-rule="evenodd" clip-rule="evenodd"
        d="M212.278 35.3652H214.609C216.414 35.3652 217.676 36.4531 217.676 38.3062C217.676 40.1765 216.431 41.2462 214.627 41.2463H210.366V32.4066H212.278V35.3652ZM212.278 39.8025H214.259C215.151 39.8024 215.696 39.4464 215.696 38.6471V37.9496C215.696 37.1517 215.151 36.8091 214.259 36.809H212.278V39.8025Z" />
    <path d="M220.954 41.2463H219.044V32.4066H220.954V41.2463Z" />
    <path
        d="M226.009 36.7251L225.833 38.8148H225.903L226.989 36.9278L230.145 32.4066H231.88V41.2463H230.006V36.9278L230.18 34.8381H230.11L229.024 36.7251L225.869 41.2463H224.133V32.4066H226.009V36.7251Z" />
    <path
        d="M262.927 35.9595H266.854V32.4066H268.764V41.2463H266.854V37.4724H262.927V41.2463H261.016V32.4066H262.927V35.9595Z" />
    <path d="M118.173 37.0135H113.317V35.1265H118.173V37.0135Z" />
    <path
        d="M231.031 28.9211L230.68 29.6701C230.188 30.6371 229.401 31.2336 228.017 31.2337C226.631 31.2337 225.842 30.6373 225.351 29.6701L225.001 28.9211L226.561 28.3084L227.157 29.8388C227.385 29.9052 227.735 29.9585 228.017 29.9585C228.297 29.9585 228.648 29.9052 228.874 29.8388L229.47 28.3084L231.031 28.9211Z" />
    <path
        d="M175.4 4.27518C176.981 4.2752 178.444 4.5714 179.751 5.15602C181.06 5.74062 182.183 6.60121 183.084 7.71376L183.174 7.8234L180.658 10.3268L180.614 10.2733L180.491 10.3968L180.382 10.2697C179.066 8.75917 177.425 7.99304 175.504 7.99294C174.254 7.99294 173.12 8.2877 172.137 8.86732C171.153 9.4455 170.372 10.2608 169.817 11.2933C169.261 12.3296 168.98 13.5203 168.98 14.8314C168.98 16.1436 169.261 17.334 169.817 18.3704C170.372 19.4016 171.153 20.2182 172.137 20.7955C173.12 21.3762 174.254 21.6717 175.504 21.6717C177.424 21.6716 179.065 20.896 180.381 19.3655L180.491 19.2365L180.623 19.3692L180.644 19.348L180.782 19.4309L183.174 21.8421L183.084 21.9518C182.182 23.0633 181.055 23.9239 179.736 24.5095C178.421 25.0931 176.952 25.3885 175.372 25.3885C173.423 25.3885 171.638 24.9314 170.064 24.0267C168.49 23.1184 167.239 21.8494 166.348 20.2537C165.457 18.6615 165.004 16.8374 165.004 14.8314C165.004 12.8278 165.462 11.0036 166.362 9.41001C167.264 7.81452 168.518 6.54456 170.092 5.63882C171.665 4.73413 173.451 4.27518 175.4 4.27518Z" />
    <path
        d="M217.703 4.27518C219.283 4.27524 220.746 4.57153 222.053 5.15602C223.362 5.74064 224.486 6.60112 225.387 7.71376L225.475 7.8234L222.965 10.3222L222.854 10.1969C221.509 8.66129 219.83 7.88242 217.866 7.88237C216.588 7.88237 215.43 8.18092 214.423 8.77058C213.415 9.36021 212.618 10.1895 212.052 11.2371C211.484 12.2898 211.195 13.4989 211.195 14.8314C211.195 16.1661 211.484 17.3745 212.052 18.4257C212.617 19.4734 213.414 20.3025 214.423 20.8931C215.429 21.4828 216.586 21.7822 217.866 21.7822C219.83 21.7822 221.509 20.9938 222.853 19.4383L222.965 19.3102L225.475 21.8421L225.387 21.9518C224.484 23.0634 223.357 23.9239 222.038 24.5095C220.722 25.0931 219.254 25.3885 217.674 25.3885C215.726 25.3884 213.941 24.9313 212.367 24.0267C210.793 23.1184 209.542 21.8494 208.651 20.2537C207.76 18.6615 207.306 16.8375 207.306 14.8314C207.306 12.8278 207.764 11.0036 208.664 9.41001C209.565 7.81435 210.821 6.54462 212.395 5.63882C213.968 4.73417 215.754 4.27518 217.703 4.27518Z" />
    <path fill-rule="evenodd" clip-rule="evenodd"
        d="M124.391 4.20885C130.474 4.20885 135.068 8.37563 135.068 14.73C135.067 20.8498 130.474 25.2494 124.391 25.2494C118.307 25.2493 113.743 21.0819 113.743 14.73C113.743 8.81343 118.102 4.20895 124.391 4.20885ZM124.391 7.55989C120.472 7.56 117.547 10.5045 117.547 14.73C117.547 18.8087 120.559 21.8973 124.391 21.8974C128.691 21.8974 131.264 18.7497 131.264 14.73C131.264 10.5044 128.252 7.55989 124.391 7.55989Z" />
    <path
        d="M76.4335 12.5556H85.4987V4.37469H89.4775V25.0909H85.4987V15.9859H76.4335V25.0909H72.4557V4.37469H76.4335V12.5556Z" />
    <path
        d="M98.7698 14.273L107.415 4.37469H112.877L103.598 14.7549L112.582 25.0909H107.197L98.7698 15.1594V25.0909H94.5042V4.37469H98.7698V14.273Z" />
    <path
        d="M190.624 4.37469V16.4456L203.67 4.37838L203.675 4.37469V25.0909H199.696V13.3747L186.701 25.0891L186.699 25.0909V4.37469H190.624Z" />
    <path
        d="M55.6113 16.4447L68.6525 4.38391L68.6608 4.37469L68.6617 9.78778L68.6608 9.78962V25.09H64.683V13.3747L51.6896 25.0881L51.6868 25.09V4.37469H55.6113V16.4447Z" />
    <path
        d="M259.603 7.65756H251.169V12.844H258.705V16.2687H251.169V21.6625H259.903V25.0872H247.491V4.23096H259.603V7.65756Z" />
    <path
        d="M162.473 24.9306H158.127L156.28 14.7872L150.419 24.9306L144.557 14.7872L142.71 24.9306H138.366L142.813 4.38943L150.418 17.1864L158.023 4.38943L162.473 24.9306Z" />
    <path
        d="M287.705 24.9297H283.361L281.512 14.7862L275.652 24.9297L269.791 14.7862L267.942 24.9297H263.597L268.044 4.38943L275.652 17.1846L283.257 4.38943L287.705 24.9297Z" />
    <path d="M244.013 8.05928H238.323V24.9241H234.091V8.05928H228.472V4.12039H244.013V8.05928Z" />
</svg>