<svg width="221" height="34" viewBox="0 0 221 34" fill="#006FDD" xmlns="http://www.w3.org/2000/svg">
    <path
        d="M12.6045 9.16413C10.2476 11.3092 8.69445 13.6471 8.69445 17C8.69446 19.2927 9.45506 20.998 10.6859 22.5943L16.0592 18.4633V9.16413H19.2998V24.9368H16.0592V22.4439L12.8171 24.9347L12.8178 24.9368H8.43881C6.58396 22.8001 5.45382 20.0341 5.4538 17C5.4538 14.0131 6.54807 11.2866 8.35195 9.16413H12.6045Z" />
    <path fill-rule="evenodd" clip-rule="evenodd"
        d="M17.2448 0C24.3171 2.29357e-05 30.3892 4.20028 33.0498 10.2063C33.1373 10.3903 33.2322 10.5903 33.3322 10.8217C33.3379 10.8356 33.3477 10.8424 33.3534 10.8565L33.3308 10.8746L33.3322 10.876L30.6925 12.9776V12.9756L25.5777 17.0501L33.2058 23.1268L33.1995 23.1442L33.2913 23.218C30.7723 29.5282 24.5413 34 17.2448 34C7.72148 34 4.77091e-05 26.3889 0 17C0 7.61183 7.72145 0 17.2448 0ZM17.2448 3.13964C9.49151 3.13964 3.18344 9.35676 3.18344 17C3.18349 24.644 9.49154 30.8611 17.2448 30.8611C22.4094 30.861 26.9044 28.1606 29.3409 24.0819L23.7537 19.6315V24.9368H20.513V9.16413H23.7537V14.4688L29.3649 9.99881C26.9228 5.89899 22.4073 3.13966 17.2448 3.13964Z" />
    <path
        d="M134.735 9.2693C135.95 9.26931 137.074 9.4931 138.078 9.93482C139.083 10.3765 139.946 11.0267 140.638 11.8673L140.707 11.9502L138.775 13.8416L138.741 13.8012L138.646 13.8945L138.562 13.7985C137.552 12.6572 136.291 12.0783 134.815 12.0783C133.855 12.0783 132.984 12.301 132.229 12.7389C131.473 13.1758 130.873 13.7917 130.447 14.5719C130.02 15.3548 129.803 16.2545 129.803 17.2451C129.803 18.2365 130.02 19.136 130.447 19.919C130.873 20.6981 131.473 21.3151 132.229 21.7513C132.984 22.1901 133.855 22.4133 134.815 22.4133C136.29 22.4132 137.551 21.8272 138.561 20.6709L138.646 20.5734L138.747 20.6736L138.763 20.6576L138.869 20.7203L140.707 22.5421L140.638 22.6249C139.945 23.4647 139.08 24.115 138.066 24.5575C137.056 24.9984 135.928 25.2216 134.714 25.2216C133.217 25.2216 131.846 24.8762 130.637 24.1927C129.427 23.5064 128.466 22.5476 127.782 21.3419C127.097 20.139 126.749 18.7607 126.749 17.2451C126.749 15.7313 127.102 14.353 127.793 13.1489C128.485 11.9435 129.449 10.9839 130.658 10.2996C131.866 9.61606 133.238 9.2693 134.735 9.2693Z" />
    <path
        d="M167.231 9.2693C168.445 9.26934 169.569 9.4932 170.572 9.93482C171.578 10.3765 172.441 11.0267 173.134 11.8673L173.202 11.9502L171.273 13.8381L171.188 13.7435C170.155 12.5832 168.865 11.9948 167.357 11.9947C166.375 11.9947 165.485 12.2203 164.712 12.6658C163.937 13.1113 163.325 13.7379 162.89 14.5294C162.454 15.3248 162.232 16.2383 162.232 17.2451C162.232 18.2536 162.454 19.1665 162.89 19.9608C163.324 20.7524 163.936 21.3788 164.711 21.8251C165.484 22.2706 166.373 22.4969 167.357 22.4969C168.865 22.4968 170.155 21.9011 171.188 20.7258L171.273 20.6291L173.202 22.5421L173.134 22.6249C172.44 23.4648 171.575 24.115 170.561 24.5575C169.55 24.9984 168.422 25.2216 167.209 25.2216C165.712 25.2215 164.341 24.8761 163.132 24.1927C161.923 23.5064 160.962 22.5476 160.278 21.3419C159.593 20.1389 159.245 18.7608 159.245 17.2451C159.245 15.7313 159.597 14.353 160.288 13.1489C160.98 11.9433 161.945 10.984 163.153 10.2996C164.362 9.61609 165.734 9.2693 167.231 9.2693Z" />
    <path fill-rule="evenodd" clip-rule="evenodd"
        d="M95.5518 9.21917C100.225 9.21917 103.753 12.3674 103.753 17.1685C103.753 21.7923 100.225 25.1165 95.5518 25.1165C90.8787 25.1164 87.3729 21.9677 87.3729 17.1685C87.3729 12.6982 90.7211 9.21925 95.5518 9.21917ZM95.5518 11.7511C92.5413 11.7512 90.2943 13.9759 90.2943 17.1685C90.2944 20.2502 92.6086 22.5838 95.5518 22.5839C98.8547 22.5839 100.832 20.2056 100.832 17.1685C100.832 13.9758 98.5181 11.7511 95.5518 11.7511Z" />
    <path
        d="M58.7127 15.5256H65.6763V9.34448H68.7326V24.9967H65.6763V18.1174H58.7127V24.9967H55.6571V9.34448H58.7127V15.5256Z" />
    <path
        d="M75.8707 16.8232L82.5115 9.34448H86.7076L79.5795 17.1873L86.481 24.9967H82.3442L75.8707 17.4929V24.9967H72.594V9.34448H75.8707V16.8232Z" />
    <path
        d="M146.43 9.34448V18.4648L156.452 9.34727L156.455 9.34448V24.9967H153.399V16.1445L143.416 24.9953L143.415 24.9967V9.34448H146.43Z" />
    <path
        d="M42.7178 18.4641L52.7356 9.35144L52.742 9.34448L52.7427 13.4344L52.742 13.4358V24.996H49.6863V16.1445L39.7052 24.9946L39.7031 24.996V9.34448H42.7178V18.4641Z" />
    <path
        d="M199.417 11.8249H192.938V15.7435H198.728V18.3311H192.938V22.4064H199.648V24.9939H190.113V9.23588H199.417V11.8249Z" />
    <path
        d="M124.805 24.8756H121.467L120.048 17.2117L115.546 24.8756L111.043 17.2117L109.624 24.8756H106.287L109.703 9.35562L115.545 19.0245L121.387 9.35562L124.805 24.8756Z" />
    <path
        d="M221.004 24.8749H217.667L216.247 17.211L211.745 24.8749L207.243 17.211L205.823 24.8749H202.485L205.902 9.35562L211.745 19.0231L217.588 9.35562L221.004 24.8749Z" />
    <path d="M187.442 12.1284H183.071V24.8707H179.82V12.1284H175.504V9.15234H187.442V12.1284Z" />
</svg>