<svg width="75" height="75" viewBox="0 0 75 75" fill="none" xmlns="http://www.w3.org/2000/svg">
<g clip-path="url(#clip0_3017_1167)">
<path d="M47.6974 31.237C47.4684 29.7614 46.9274 28.3893 46.1445 27.1898L37.4958 34.34V29.0135L31.741 24.2559C30.591 25.0309 29.6058 26.0319 28.8477 27.1948L37.4958 34.3446V39.6711L47.6974 31.237Z" fill="url(#paint0_radial_3017_1167)"/>
<path d="M47.6983 31.2365L37.4967 39.6706V34.3395L28.8486 27.1943C27.791 28.8167 27.1758 30.7544 27.1758 32.8363C27.1758 38.545 31.7975 43.1728 37.4986 43.1728C43.1998 43.1728 47.8215 38.545 47.8215 32.8363C47.8215 32.2922 47.7792 31.758 47.6983 31.2365Z" fill="url(#paint1_radial_3017_1167)"/>
<path d="M37.497 29.0132V34.3396L46.1456 27.1894C44.3028 24.366 41.1187 22.5 37.4989 22.5C35.3673 22.5 33.3868 23.1471 31.7422 24.2555L37.497 29.0132Z" fill="url(#paint2_radial_3017_1167)"/>
<path fill-rule="evenodd" clip-rule="evenodd" d="M25.4716 46.7681C25.898 46.7676 26.3243 46.7663 26.7507 46.7685C26.7512 48.1486 26.7503 49.5282 26.7507 50.9079C27.2999 50.9044 27.849 50.9166 28.3972 50.9018C28.392 49.5239 28.3959 48.1459 28.3955 46.7685C28.8201 46.7672 29.2452 46.7667 29.6702 46.7685C29.6694 48.1481 29.6694 49.5282 29.6702 50.9079C30.218 50.9079 30.7659 50.9092 31.3137 50.907C31.3159 49.5274 31.3124 48.1473 31.3154 46.7676C31.7396 46.7676 32.1642 46.7672 32.5884 46.7676C32.591 48.4911 32.5889 50.2146 32.5893 51.938C30.2167 51.9363 27.8437 51.9393 25.4712 51.9363C25.4725 50.2137 25.4712 48.4906 25.4716 46.7681ZM15.3349 49.7281C15.3327 50.1214 15.3331 50.5142 15.3344 50.9075C15.9517 50.9057 16.5698 50.914 17.1871 50.9031C17.3837 50.8939 17.6489 50.8677 17.7223 50.648C17.776 50.4438 17.7782 50.2198 17.7188 50.0169C17.6358 49.7846 17.3597 49.7386 17.1439 49.7307C16.541 49.7251 15.9377 49.7307 15.3349 49.7281ZM14.0003 46.7681C15.5411 46.7676 17.0818 46.7667 18.6226 46.7685C18.5047 47.1119 18.3911 47.4565 18.2732 47.7999C17.2937 47.7999 16.3139 47.7999 15.3344 47.7999C15.3327 48.0978 15.334 48.3957 15.3336 48.6936C15.9797 48.6997 16.6258 48.6923 17.2723 48.6976C17.7131 48.7089 18.1832 48.7846 18.5353 49.0707C18.8354 49.3104 18.9813 49.6936 19.0127 50.0676C19.0486 50.4884 19.0084 50.9416 18.7686 51.3016C18.5689 51.6029 18.2316 51.7845 17.8861 51.8641C17.5003 51.9599 17.1011 51.9345 16.7075 51.9376C15.8054 51.9376 14.9028 51.9376 14.0007 51.9376C13.9994 50.2146 14.0003 48.4911 14.0003 46.7681ZM57.4428 49.5623C57.4432 50.0112 57.4419 50.4595 57.4432 50.9083C58.0046 50.9048 58.5655 50.9144 59.1268 50.9035C59.3444 50.8974 59.6227 50.8357 59.6939 50.5964C59.752 50.3699 59.7564 50.1214 59.6913 49.8966C59.61 49.6424 59.3182 49.5667 59.0814 49.5628C58.5349 49.5584 57.9888 49.5597 57.4428 49.5623ZM56.113 46.7654C56.556 46.7702 56.9994 46.7663 57.4432 46.7676C57.4419 47.3538 57.4441 47.9399 57.4419 48.5261C58.0308 48.5326 58.6201 48.5243 59.2094 48.53C59.6581 48.5388 60.1329 48.6306 60.4872 48.925C60.7865 49.1713 60.9433 49.5527 60.983 49.932C61.0302 50.3795 60.9883 50.8624 60.738 51.2482C60.5239 51.5824 60.1556 51.7884 59.7751 51.872C59.5056 51.938 59.2265 51.9415 58.9503 51.9376C58.0037 51.9376 57.057 51.9371 56.1099 51.938C56.1113 50.2137 56.1056 48.4893 56.113 46.7654ZM50.8148 46.7667C52.4102 46.7689 54.0056 46.7663 55.601 46.7681C55.6006 47.1123 55.6014 47.4561 55.6006 47.8004C55.0523 47.7999 54.5041 47.7991 53.9558 47.8008C53.9545 49.1796 53.9554 50.5588 53.9554 51.9376C53.5111 51.9371 53.0668 51.9376 52.6225 51.9376C52.6212 50.5584 52.6225 49.1796 52.6221 47.8008C52.1346 47.7995 51.6475 47.7991 51.1604 47.8013C51.0433 47.457 50.921 47.1145 50.8148 46.7667ZM39.5414 46.7698C40.9594 46.7641 42.377 46.7698 43.795 46.7672C43.6889 47.1141 43.567 47.4561 43.4508 47.7999C42.5924 47.8004 41.7335 47.7995 40.8746 47.7999C40.8747 48.1158 40.8742 48.4316 40.8755 48.7474C41.685 48.7478 42.4945 48.7465 43.304 48.7478C43.304 49.0917 43.304 49.4351 43.304 49.7789C42.4941 49.7793 41.6846 49.7789 40.8746 49.7793C40.8747 50.1551 40.8746 50.5313 40.8746 50.9075C41.8126 50.9092 42.7505 50.9075 43.6889 50.9083C43.6897 51.2513 43.6893 51.5942 43.6889 51.9376C42.3058 51.9354 40.9232 51.9424 39.5401 51.9341C39.5436 50.2124 39.5414 48.4911 39.5414 46.7698ZM33.5128 46.7698C33.9571 46.7654 34.4018 46.7676 34.8465 46.7685C34.8465 47.4281 34.8461 48.0873 34.847 48.747C35.6604 48.7478 36.4738 48.747 37.2877 48.7474C37.289 48.0873 37.2877 47.4277 37.2881 46.7676C37.7324 46.7667 38.1762 46.7685 38.6205 46.7667C38.6235 48.4902 38.6209 50.2141 38.6218 51.9376C38.1771 51.9376 37.7328 51.9376 37.2885 51.9376C37.2855 51.2176 37.2933 50.4976 37.2846 49.778C36.472 49.7815 35.6595 49.7767 34.8465 49.7806C34.8474 50.498 34.8443 51.2158 34.8483 51.9337C34.4044 51.9433 33.9606 51.9332 33.5167 51.9389C33.508 50.2159 33.5167 48.4928 33.5128 46.7698ZM21.3036 49.6144C21.7924 49.6148 22.2813 49.6144 22.7701 49.6149C22.5661 48.9933 22.3621 48.3721 22.1576 47.7509C22.0712 47.7496 21.9847 47.7488 21.8982 47.7483C21.6985 48.3699 21.5024 48.9924 21.3036 49.6144ZM20.955 46.7672C21.6221 46.7672 22.2887 46.7689 22.9558 46.7663C23.0021 46.7764 23.0894 46.7401 23.1034 46.8092C23.7199 48.5178 24.3306 50.2286 24.9452 51.938C24.4747 51.9371 24.0042 51.9376 23.5337 51.9376C23.3927 51.5063 23.2485 51.0763 23.11 50.6445C22.3997 50.6402 21.6898 50.645 20.9795 50.6424C20.8379 51.0724 20.7042 51.5054 20.5658 51.9367C20.1136 51.938 19.661 51.938 19.2089 51.9367C19.7908 50.2137 20.3718 48.4902 20.955 46.7672ZM48.0587 47.7903C48.057 48.8332 48.0574 49.876 48.0587 50.9184C48.4204 50.9179 48.8154 50.9446 49.1356 50.7439C49.4117 50.5693 49.5383 50.2417 49.5921 49.9329C49.6572 49.5169 49.6541 49.0877 49.575 48.6739C49.5156 48.3747 49.3741 48.0611 49.0915 47.9146C48.773 47.7514 48.4034 47.7956 48.0587 47.7903ZM45.6687 48.0099C45.3297 48.3174 45.2821 48.8109 45.2659 49.2413C45.262 49.7111 45.2803 50.2425 45.6084 50.6135C45.9234 50.9499 46.4227 50.9206 46.8447 50.9188C46.8451 49.876 46.8451 48.8332 46.8447 47.7903C46.4489 47.796 45.995 47.7361 45.6687 48.0099ZM46.8456 46.2073C46.8447 46.3796 46.8456 46.5519 46.8434 46.7247C46.1357 46.695 45.3708 46.8048 44.8146 47.2798C44.2437 47.754 44.0191 48.5208 44.0073 49.2404C43.9781 50.0558 44.2363 50.9377 44.8928 51.463C45.435 51.907 46.165 52.0115 46.8447 51.9844C46.8447 52.1554 46.8447 52.3269 46.8451 52.4984C47.2488 52.5001 47.6525 52.4971 48.0561 52.5001C48.0587 52.3278 48.0574 52.1559 48.0583 51.9844C48.7319 52.0102 49.454 51.9092 49.9944 51.4726C50.6597 50.9503 50.9223 50.061 50.893 49.2417C50.8817 48.5191 50.6545 47.7501 50.0805 47.2755C49.5244 46.8035 48.763 46.6976 48.0579 46.7225C48.0574 46.5502 48.0596 46.3774 48.0548 46.2051C47.6516 46.2086 47.2484 46.2051 46.8456 46.2073Z" fill="black"/>
</g>
<defs>
<radialGradient id="paint0_radial_3017_1167" cx="0" cy="0" r="1" gradientUnits="userSpaceOnUse" gradientTransform="translate(38.6253 31.5197) scale(8.44055 8.45169)">
<stop stop-color="#FCFEFA"/>
<stop offset="1" stop-color="#D6D7D6"/>
</radialGradient>
<radialGradient id="paint1_radial_3017_1167" cx="0" cy="0" r="1" gradientUnits="userSpaceOnUse" gradientTransform="translate(37.8851 34.7236) scale(9.02698 9.03889)">
<stop stop-color="#7BB631"/>
<stop offset="1" stop-color="#027E40"/>
</radialGradient>
<radialGradient id="paint2_radial_3017_1167" cx="0" cy="0" r="1" gradientUnits="userSpaceOnUse" gradientTransform="translate(39.8001 24.9779) scale(9.37783 9.3902)">
<stop stop-color="#DF176E"/>
<stop offset="1" stop-color="#A30372"/>
</radialGradient>
<clipPath id="clip0_3017_1167">
<rect width="47" height="30" fill="white" transform="translate(14 22.5)"/>
</clipPath>
</defs>
</svg>
