<svg width="75" height="75" viewBox="0 0 75 75" fill="none" xmlns="http://www.w3.org/2000/svg">
<g clip-path="url(#clip0_3017_1160)">
<path d="M25.5558 29.5143C25.0356 27.1947 23.73 25.3068 23.5515 25C23.2659 25.4317 22.2306 27.1011 21.7002 28.9474C21.129 31.0069 21.0423 32.8375 21.2412 34.637C21.4401 36.4364 22.1847 38.2879 22.1847 38.2879C22.5825 39.2605 23.1792 40.3006 23.5617 40.8103C24.1278 40.0562 25.4334 37.8146 25.8414 34.8866C26.0658 33.2588 26.0709 31.8338 25.5558 29.5143ZM23.5515 40.233C23.2965 39.7441 22.8987 38.808 22.8579 37.3622C22.8477 35.9684 23.3985 34.7722 23.5566 34.5226C23.6994 34.7722 24.1737 35.8124 24.2298 37.2374C24.2706 38.6312 23.8167 39.7337 23.5515 40.233ZM25.4028 33.4564C25.3875 34.3405 25.2855 35.2767 25.1478 35.8332C25.1988 34.871 25.0866 33.5136 24.8622 32.4527C24.648 31.3917 24.036 29.6235 23.5413 28.8017C23.0874 29.5819 22.5315 31.1109 22.2357 32.4423C21.945 33.7737 21.9348 35.3807 21.9348 35.8592C21.8532 35.4535 21.6645 34.0025 21.7206 32.5463C21.7665 31.3449 22.0368 30.1123 22.1898 29.5403C22.7661 27.642 23.4189 26.4302 23.5413 26.2378C23.6637 26.4302 24.4899 27.9228 24.9132 29.4934C25.3416 31.0641 25.4232 32.5671 25.4028 33.4564ZM24.4338 41.3512H26.6727V47.2592C25.1274 48.9442 22.9242 49.9948 20.4813 49.9948C15.7995 50 12 46.1254 12 41.3512C12 36.5769 15.7995 32.7023 20.4813 32.7023V39.2032C19.2624 39.2032 18.0435 39.6765 17.1153 40.6283C16.896 40.8519 16.7022 41.0963 16.5339 41.3512C15.2844 43.239 15.4782 45.8238 17.1153 47.4984C18.0435 48.445 19.2624 48.9182 20.4813 48.9182C21.6951 48.9182 22.914 48.4502 23.8371 47.5088C23.8422 47.5036 23.8473 47.4984 23.8524 47.4984C23.8575 47.4932 23.8575 47.4932 23.8626 47.488C24.7908 46.5363 24.7908 44.9969 23.8626 44.0503C22.9344 43.0986 21.4197 43.0986 20.4915 44.0503C20.4915 44.0555 20.4864 44.0555 20.4813 44.0607V41.3564H24.4338V41.3512ZM31.6809 48.4554C31.6809 49.0587 31.6095 50 30.4161 50H29.0085C27.8253 50 27.7488 49.0587 27.7488 48.4554V42.8958C27.7488 42.2925 27.8202 41.3512 29.0085 41.3512H30.4161C31.6044 41.3512 31.6809 42.2925 31.6809 42.8958V44.118H29.9826V42.7085C29.9826 42.5629 29.8755 42.4225 29.7174 42.4225C29.6205 42.4225 29.4522 42.4849 29.4522 42.7085V48.6062C29.4522 48.8298 29.6205 48.8922 29.7174 48.8922C29.8755 48.8922 29.9826 48.757 29.9826 48.6062V46.7131H29.7276V45.7614H31.686V48.4554H31.6809ZM32.3592 50L33.2415 41.3512H35.9037L36.786 50H35.1234L34.9653 47.7013H34.1646L34.0116 50H32.3592ZM34.236 46.7495H34.9143L34.6185 42.4277H34.5216L34.236 46.7495ZM37.4184 48.913L39.0453 42.4277H37.5867V41.3512H40.7844V42.4277L39.1626 48.8922H40.8864V50H37.4184V48.913ZM41.682 50V41.3512H44.3544C45.5376 41.3512 45.6141 42.2925 45.6141 42.8958V45.517C45.6141 46.1202 45.5427 47.0616 44.3544 47.0616H43.3854V50H41.682ZM43.3854 45.9798H43.5996C43.7883 45.9798 43.9158 45.8186 43.9158 45.5482V42.8594C43.9158 42.5889 43.7832 42.4277 43.5996 42.4277H43.3854V45.9798ZM50.6274 50H48.8832L48.3069 46.8015H48.1845V50H46.4913V41.3512H49.1535C50.3418 41.3512 50.4132 42.2925 50.4132 42.8958V45.5742C50.4132 45.8082 50.403 46.3751 49.8012 46.6247L50.6274 50ZM48.1794 45.725H48.3987C48.5823 45.725 48.7098 45.5638 48.7098 45.2933V42.8594C48.7098 42.5889 48.5772 42.4277 48.3987 42.4277H48.1794V45.725ZM51.5403 48.4554V42.8958C51.5403 42.2925 51.6117 41.3512 52.8051 41.3512H54.2076C55.3959 41.3512 55.4724 42.2925 55.4724 42.8958V48.4554C55.4724 49.0587 55.401 50 54.2076 50H52.8051C51.6168 50 51.5403 49.0639 51.5403 48.4554ZM53.769 48.6062V42.7085C53.769 42.5629 53.6619 42.4225 53.5038 42.4225C53.4069 42.4225 53.2386 42.4849 53.2386 42.7085V48.6062C53.2386 48.8298 53.4069 48.8922 53.5038 48.8922C53.6619 48.8922 53.769 48.757 53.769 48.6062ZM60.7968 41.3512H63V50H61.3068V44.5756H61.2456L60.3735 50H59.0169L58.1448 44.5756H58.0836V50H56.3904V41.3512H58.5936L59.6952 47.4308L60.7968 41.3512Z" fill="#007AC6"/>
</g>
<defs>
<clipPath id="clip0_3017_1160">
<rect width="51" height="25" fill="white" transform="translate(12 25)"/>
</clipPath>
</defs>
</svg>
