<svg xmlns="http://www.w3.org/2000/svg" width="60" height="60" viewBox="0 0 60 60">
    <path
        d="M17 35.1818V25H21.017C21.7893 25 22.4472 25.1475 22.9908 25.4425C23.5343 25.7341 23.9486 26.1402 24.2337 26.6605C24.522 27.1776 24.6662 27.7741 24.6662 28.4503C24.6662 29.1264 24.5204 29.723 24.2287 30.2401C23.937 30.7571 23.5144 31.1598 22.9609 31.4482C22.4107 31.7365 21.7446 31.8807 20.9624 31.8807H18.402V30.1555H20.6143C21.0286 30.1555 21.37 30.0843 21.6385 29.9418C21.9103 29.7959 22.1125 29.5954 22.245 29.3402C22.3809 29.0817 22.4489 28.785 22.4489 28.4503C22.4489 28.1122 22.3809 27.8172 22.245 27.5653C22.1125 27.3101 21.9103 27.1129 21.6385 26.9737C21.3667 26.8312 21.022 26.7599 20.6044 26.7599H19.1527V35.1818H17Z" />
    <path
        d="M29.6738 35.1818H26.0645V25H29.7037C30.7278 25 31.6094 25.2038 32.3485 25.6115C33.0877 26.0159 33.6561 26.5975 34.0538 27.3565C34.4548 28.1155 34.6554 29.0237 34.6554 30.081C34.6554 31.1416 34.4548 32.053 34.0538 32.8153C33.6561 33.5777 33.0843 34.1626 32.3386 34.5703C31.5962 34.978 30.7079 35.1818 29.6738 35.1818ZM28.2172 33.3374H29.5843C30.2207 33.3374 30.756 33.2247 31.1902 32.9993C31.6277 32.7706 31.9558 32.4176 32.1745 31.9403C32.3966 31.4598 32.5076 30.84 32.5076 30.081C32.5076 29.3286 32.3966 28.7138 32.1745 28.2365C31.9558 27.7592 31.6293 27.4079 31.1951 27.1825C30.7609 26.9571 30.2257 26.8445 29.5893 26.8445H28.2172V33.3374Z" />
    <path d="M36.25 35.1818V25H42.9915V26.7749H38.4027V29.201H42.544V30.9759H38.4027V35.1818H36.25Z" />
</svg>