<svg xmlns="http://www.w3.org/2000/svg" width="24" height="24" viewBox="0 0 24 24">

    <path
        d="M13.06 7.48937C11.1074 5.53675 7.94158 5.53675 5.98896 7.48937C4.03634 9.44199 4.03634 12.6078 5.98896 14.5604C7.94158 16.5131 11.1074 16.5131 13.06 14.5604C15.0127 12.6078 15.0127 9.44199 13.06 7.48937ZM14.4742 6.07515C16.9678 8.56867 17.1849 12.4739 15.1296 15.2158L19.424 19.5102L18.0098 20.9244L13.7153 16.63C10.9735 18.6854 7.06826 18.4682 4.57475 15.9746C1.84108 13.241 1.84108 8.80882 4.57475 6.07515C7.30842 3.34148 11.7406 3.34148 14.4742 6.07515Z" />

</svg>