<svg width="15" height="15" viewBox="0 0 15 15" fill="none" xmlns="http://www.w3.org/2000/svg">
<path d="M12.7593 6.66499C12.5039 6.66499 12.2688 6.7446 12.0714 6.87729C11.9031 6.38782 11.4416 6.03693 10.9017 6.03693C10.6463 6.03693 10.4112 6.11655 10.2138 6.24923C10.0455 5.75976 9.58401 5.40888 9.04416 5.40888C8.81777 5.40888 8.60589 5.4708 8.42594 5.57695V3.51882C8.42594 2.8259 7.87157 2.25977 7.1866 2.25977C6.50162 2.25977 5.94726 2.82295 5.94726 3.51882V8.86465L4.87046 8.04494C4.23192 7.55842 3.32636 7.62329 2.76038 8.19826C2.39758 8.56684 2.39758 9.16541 2.76038 9.53104L7.16919 14.01C7.69453 14.5437 8.39691 14.8385 9.13994 14.8385H10.5912C12.469 14.8385 13.9957 13.2876 13.9957 11.3798V7.92109C13.9986 7.22817 13.4413 6.66499 12.7593 6.66499ZM13.3775 11.3828C13.3775 12.9426 12.1265 14.2134 10.5912 14.2134H9.13994C8.55945 14.2134 8.0167 13.9834 7.60745 13.5677L3.19865 9.08874C3.07675 8.9649 3.07675 8.76735 3.19865 8.6435C3.39021 8.4489 3.64563 8.34864 3.90394 8.34864C4.11292 8.34864 4.3248 8.41351 4.49894 8.54915L6.06916 9.74628C6.16204 9.81705 6.28975 9.82884 6.39423 9.77577C6.49872 9.72269 6.56548 9.6136 6.56548 9.49565V3.51882C6.56548 3.17089 6.84411 2.89077 7.1837 2.89077C7.52328 2.89077 7.80192 3.17383 7.80192 3.51882V8.2366C7.80192 8.41056 7.94123 8.5521 8.11248 8.5521C8.28372 8.5521 8.42304 8.41056 8.42304 8.2366V6.66499C8.42304 6.31705 8.70167 6.03693 9.04126 6.03693C9.38084 6.03693 9.65947 6.32 9.65947 6.66499V8.2366C9.65947 8.41056 9.79879 8.5521 9.97004 8.5521C10.1413 8.5521 10.2806 8.41056 10.2806 8.2366V7.29304C10.2806 6.94511 10.5592 6.66499 10.8988 6.66499C11.2384 6.66499 11.517 6.94805 11.517 7.29304V8.2366C11.517 8.41056 11.6564 8.5521 11.8276 8.5521C11.9988 8.5521 12.1382 8.41056 12.1382 8.2366V7.92109C12.1382 7.57316 12.4168 7.29304 12.7564 7.29304C13.096 7.29304 13.3746 7.57611 13.3746 7.92109L13.3775 11.3828Z" fill="#222222"/>
<path d="M12.3779 0.772461L13.4434 1.87793L13.5107 1.94727L13.4434 2.0166L12.3779 3.12305L12.3066 3.19727L12.2344 3.12305L12.0859 2.96973L12.0195 2.90039L12.0859 2.83008L12.7363 2.15625H8.94727V1.73828H12.7354L12.0859 1.06445L12.0195 0.995117L12.0859 0.925781L12.2344 0.772461L12.3066 0.697266L12.3779 0.772461Z" fill="#006FDD" stroke="#006FDD" stroke-width="0.2"/>
<path d="M2.13672 0.772461L2.28516 0.925781L2.35254 0.995117L2.28516 1.06445L1.63672 1.73828H5.4248V2.15625H1.63574L2.28516 2.83008L2.35254 2.90039L2.28516 2.96973L2.13672 3.12305L2.06543 3.19727L1.99316 3.12305L0.927734 2.0166L0.861328 1.94727L0.927734 1.87793L1.99316 0.772461L2.06543 0.697266L2.13672 0.772461Z" fill="#006FDD" stroke="#006FDD" stroke-width="0.2"/>
</svg>
