<svg xmlns="http://www.w3.org/2000/svg" width="35" height="35" viewBox="0 0 35 35">
  <path d="M15.5751 14.2308V12.8846C15.5751 12.6731 15.402 12.5 15.1905 12.5C14.979 12.5 14.8059 12.6731 14.8059 12.8846V14.2308C14.8059 14.4423 14.979 14.6154 15.1905 14.6154C15.4021 14.6154 15.5751 14.4423 15.5751 14.2308ZM20.1905 14.2308V12.8846C20.1905 12.6731 20.0174 12.5 19.8059 12.5C19.5943 12.5 19.4212 12.6731 19.4212 12.8846V14.2308C19.4212 14.4423 19.5943 14.6154 19.8059 14.6154C20.0174 14.6154 20.1905 14.4423 20.1905 14.2308ZM22.1136 21.5077V16.5385H12.8828V21.5077C12.8828 22.0558 13.327 22.5 13.8751 22.5H21.1213C21.6693 22.5 22.1136 22.0558 22.1136 21.5077Z" />
  <path d="M19.0366 14.2312V13.6543H15.9597V14.2312C15.9597 14.6562 15.6155 15.0004 15.1905 15.0004C14.7655 15.0004 14.4213 14.6562 14.4213 14.2312V13.6543H13.8751C13.327 13.6543 12.8828 14.0985 12.8828 14.6466V16.1543H22.1136V14.6466C22.1136 14.0985 21.6694 13.6543 21.1213 13.6543H20.5751V14.2312C20.5751 14.6562 20.2309 15.0004 19.8059 15.0004C19.3809 15.0004 19.0366 14.6562 19.0366 14.2312Z" />
</svg>
