<svg xmlns="http://www.w3.org/2000/svg" width="35" height="35" viewBox="0 0 35 35">
  <path d="M20.69 13.5133V14.4474H19.6155V13.8083C19.6155 13.6757 19.5081 13.5688 19.3749 13.5688H15.6294C15.4962 13.5688 15.3887 13.6757 15.3887 13.8083V14.4474H14.3143V13.5133C14.3143 12.9532 14.7699 12.5 15.3329 12.5H19.6693C20.2323 12.4979 20.69 12.9532 20.69 13.5133ZM13.2635 14.6184H21.7365C22.4349 14.6184 23 15.1806 23 15.8754V21.243C23 21.9378 22.4349 22.5 21.7365 22.5H13.2635C12.5651 22.5021 12 21.9378 12 21.243V15.8754C12 15.1806 12.5651 14.6184 13.2635 14.6184Z" />
</svg>
