<svg width="322" height="331" viewBox="0 0 322 331" fill="black" xmlns="http://www.w3.org/2000/svg">
    <path
        d="M121.687 89.2155C98.9326 110.098 83.9378 132.859 83.9378 165.5C83.9379 187.82 91.2809 204.421 103.163 219.962L155.038 179.746V89.2155H186.324V242.767H155.038V218.498L123.739 242.747L123.745 242.767H81.4698C63.5628 221.966 52.6522 195.037 52.652 165.5C52.652 136.422 63.2163 109.878 80.6312 89.2155H121.687Z" />
    <path fill-rule="evenodd" clip-rule="evenodd"
        d="M166.485 0C234.762 0.000223286 293.383 40.891 319.068 99.361C319.913 101.153 320.829 103.1 321.795 105.352C321.85 105.488 321.945 105.554 322 105.691L321.782 105.867L321.795 105.881L296.311 126.341V126.321L246.932 165.988L320.575 225.146L320.514 225.316L321.4 226.034C297.081 287.466 236.926 331 166.485 331C74.5446 331 0.000460592 256.904 0 165.5C0 74.1034 74.5443 0 166.485 0ZM166.485 30.5653C91.6328 30.5653 30.7335 91.0908 30.7335 165.5C30.734 239.916 91.633 300.441 166.485 300.441C216.344 300.441 259.74 274.152 283.263 234.445L229.322 191.118V242.767H198.036V89.2155H229.322V140.858L283.494 97.3414C259.917 57.4284 216.324 30.5655 166.485 30.5653Z" />
    <path
        d="M308.875 26.2005C307.056 26.2005 305.357 25.8629 303.778 25.1876C302.2 24.4973 300.809 23.552 299.606 22.3515C298.404 21.151 297.456 19.7629 296.765 18.1873C296.088 16.5967 295.75 14.901 295.75 13.1003C295.75 11.2995 296.088 9.61136 296.765 8.03573C297.456 6.44509 298.404 5.04953 299.606 3.84905C300.809 2.64856 302.2 1.71069 303.778 1.03542C305.357 0.345139 307.056 0 308.875 0C310.679 0 312.378 0.345139 313.972 1.03542C315.565 1.71069 316.956 2.64856 318.144 3.84905C319.346 5.04953 320.286 6.44509 320.963 8.03573C321.654 9.61136 322 11.2995 322 13.1003C322 14.901 321.654 16.5967 320.963 18.1873C320.286 19.7629 319.346 21.151 318.144 22.3515C316.956 23.552 315.565 24.4973 313.972 25.1876C312.393 25.8629 310.694 26.2005 308.875 26.2005ZM308.875 22.9592C310.694 22.9592 312.348 22.5165 313.836 21.6312C315.34 20.7458 316.535 19.5604 317.422 18.0748C318.309 16.5742 318.753 14.916 318.753 13.1003C318.753 11.2845 318.309 9.63387 317.422 8.14827C316.535 6.64767 315.34 5.45469 313.836 4.56934C312.348 3.68398 310.694 3.2413 308.875 3.2413C307.056 3.2413 305.395 3.68398 303.891 4.56934C302.403 5.45469 301.215 6.64767 300.328 8.14827C299.441 9.63387 298.997 11.2845 298.997 13.1003C298.997 14.916 299.441 16.5742 300.328 18.0748C301.215 19.5604 302.403 20.7458 303.891 21.6312C305.395 22.5165 307.056 22.9592 308.875 22.9592ZM304.229 18.9976V6.93279H310.296C310.867 6.91778 311.453 7.06034 312.055 7.36046C312.656 7.64557 313.16 8.07324 313.566 8.64347C313.972 9.2137 314.175 9.93399 314.175 10.8043C314.175 11.6297 313.979 12.3425 313.588 12.9427C313.212 13.5279 312.754 13.9856 312.213 14.3157L314.648 18.9976H311.559L309.484 14.901H307.026V18.9976H304.229ZM307.026 12.8302H309.371C309.762 12.8452 310.153 12.6876 310.544 12.3575C310.935 12.0123 311.13 11.4946 311.13 10.8043C311.13 10.1141 310.927 9.64137 310.521 9.38627C310.13 9.11616 309.755 8.98111 309.394 8.98111H307.026V12.8302Z" />
</svg>