<svg width="1840" height="164" viewBox="0 0 1840 164" fill="none" xmlns="http://www.w3.org/2000/svg">
    <path fill-rule="evenodd" clip-rule="evenodd"
        d="M863.689 161.512L829.007 2.08911L769.713 101.406L710.421 2.08911L675.758 161.512H709.619L724.023 82.7895L769.724 161.512L815.414 82.7895L829.817 161.512H863.689Z"
        fill="white" />
    <path fill-rule="evenodd" clip-rule="evenodd"
        d="M1791.72 82.7855L1806.13 161.509H1840L1805.33 2.09692L1746.03 101.403L1686.73 2.09692L1652.05 161.509H1685.93L1700.34 82.7855L1746.03 161.509L1791.72 82.7855Z"
        fill="white" />
    <path fill-rule="evenodd" clip-rule="evenodd"
        d="M566.726 26.7098C596.83 26.7098 620.31 49.5605 620.31 82.3557C620.31 113.553 600.247 137.983 566.726 137.983C536.855 137.983 513.365 114.012 513.365 82.3557C513.365 49.5605 536.172 26.7098 566.726 26.7098ZM566.726 164C614.153 164 649.958 129.852 649.958 82.3557C649.958 33.0388 614.153 0.701172 566.726 0.701172C517.699 0.701172 483.719 36.436 483.719 82.3557C483.719 131.654 519.299 164 566.726 164Z"
        fill="white" />
    <path fill-rule="evenodd" clip-rule="evenodd"
        d="M1555.16 94.3016H1613.91V67.7196H1555.16V27.4659H1620.91V0.873047H1526.48V162.741H1623.25V136.159H1555.16V94.3016Z"
        fill="white" />
    <path fill-rule="evenodd" clip-rule="evenodd"
        d="M263.637 65.4607H192.965V1.96484H161.953V162.743H192.965V92.0818H263.637V162.743H294.649V1.96484H263.637V65.4607Z"
        fill="white" />
    <path fill-rule="evenodd" clip-rule="evenodd"
        d="M434.493 1.96484L367.099 78.7898V1.96484H333.844V162.743H367.099V85.6651L432.794 162.743H474.778L404.739 82.5287L477.079 1.96484H434.493Z"
        fill="white" />
    <path fill-rule="evenodd" clip-rule="evenodd"
        d="M1499.28 30.5733V0H1378.12V30.5733H1421.93V161.46H1454.93V30.5733H1499.28Z" fill="white" />
    <path fill-rule="evenodd" clip-rule="evenodd"
        d="M1023.4 137.622L1005.52 119.687C1005.4 119.825 1005.27 119.941 1005.15 120.076L1004.19 119.113C993.643 131.332 980.656 137.437 965.245 137.437C955.253 137.437 946.285 135.122 938.382 130.476C930.465 125.85 924.288 119.405 919.84 111.177C915.401 102.93 913.165 93.5925 913.165 83.1349C913.165 72.6959 915.401 63.3502 919.84 55.1C924.288 46.8645 930.465 40.4197 938.382 35.7936C946.285 31.1481 955.253 28.8413 965.245 28.8413C980.656 28.8413 993.643 34.8695 1004.19 46.9336L1005.16 45.9784C1005.27 46.1138 1005.4 46.221 1005.52 46.3592L1023.4 28.6564C1016.45 20.1277 1007.93 13.6331 997.858 9.15308C987.779 4.6653 976.633 2.42383 964.437 2.42383C949.389 2.42383 935.804 5.89117 923.665 12.8434C911.544 19.7966 902.001 29.3954 895.043 41.6562C888.083 53.9142 884.609 67.7505 884.609 83.1349C884.609 98.5282 888.045 112.375 894.936 124.624C901.816 136.874 911.332 146.473 923.461 153.437C935.591 160.379 949.193 163.854 964.221 163.854C976.428 163.854 987.604 161.604 997.742 157.127C1007.89 152.648 1016.45 146.142 1023.4 137.622Z"
        fill="white" />
    <path fill-rule="evenodd" clip-rule="evenodd"
        d="M1353.24 137.622L1335.36 119.687C1324.58 132.094 1311.31 138.295 1295.56 138.295C1285.34 138.295 1276.18 135.949 1268.1 131.227C1260 126.524 1253.69 119.99 1249.15 111.617C1244.61 103.242 1242.33 93.759 1242.33 83.1349C1242.33 72.5226 1244.61 63.0386 1249.15 54.6531C1253.69 46.29 1260 39.7458 1268.1 35.0429C1276.18 30.3311 1285.34 27.9747 1295.56 27.9747C1311.31 27.9747 1324.58 34.1101 1335.36 46.3592L1353.24 28.6564C1346.29 20.1277 1337.77 13.6331 1327.7 9.15308C1317.62 4.6653 1306.48 2.42383 1294.28 2.42383C1279.23 2.42383 1265.65 5.89117 1253.51 12.8434C1241.39 19.7966 1231.84 29.3954 1224.89 41.6562C1217.93 53.9142 1214.45 67.7505 1214.45 83.1349C1214.45 98.5282 1217.89 112.375 1224.78 124.624C1231.66 136.874 1241.17 146.473 1253.3 153.437C1265.43 160.379 1279.03 163.854 1294.06 163.854C1306.27 163.854 1317.45 161.604 1327.58 157.127C1337.73 152.648 1346.29 146.142 1353.24 137.622Z"
        fill="white" />
    <path fill-rule="evenodd" clip-rule="evenodd"
        d="M0.000893429 162.739L0.0204 162.72L101.314 71.8162V162.739H132.327V43.9888L132.337 43.979V1.96484H132.327L132.259 2.03304L30.5913 95.6446V1.96678H0V123.814L0.000893429 162.739Z"
        fill="white" />
    <path fill-rule="evenodd" clip-rule="evenodd"
        d="M1052.58 162.732L1153.89 71.8172V162.743H1184.9V43.9899V43.9801V1.96588L1184.87 1.995L1083.16 95.6457V1.96484H1052.56V123.815V162.743L1052.58 162.732Z"
        fill="white" />
</svg>