<svg width="38" height="55" viewBox="0 0 38 55" fill="none" xmlns="http://www.w3.org/2000/svg">
<path d="M34.7759 5.25526C34.4148 5.25526 34.0746 5.18753 33.7556 5.05209C33.4396 4.91364 33.1611 4.72401 32.9204 4.48322C32.6796 4.24243 32.4899 3.96402 32.3515 3.64798C32.216 3.32894 32.1483 2.98882 32.1483 2.62764C32.1483 2.26645 32.216 1.92784 32.3515 1.6118C32.4899 1.29276 32.6796 1.01284 32.9204 0.772047C33.1611 0.531257 33.4396 0.34314 33.7556 0.207695C34.0746 0.069241 34.4148 1.38404e-05 34.7759 1.38404e-05C35.1401 1.38404e-05 35.4803 0.069241 35.7963 0.207695C36.1153 0.34314 36.3953 0.531257 36.636 0.772047C36.8768 1.01284 37.065 1.29276 37.2004 1.6118C37.3358 1.92784 37.4036 2.26645 37.4036 2.62764C37.4036 2.98882 37.3358 3.32894 37.2004 3.64798C37.065 3.96402 36.8768 4.24243 36.636 4.48322C36.3953 4.72401 36.1153 4.91364 35.7963 5.05209C35.4803 5.18753 35.1401 5.25526 34.7759 5.25526ZM34.7759 4.62318C35.1462 4.62318 35.4818 4.53439 35.7827 4.35681C36.0837 4.17622 36.323 3.93543 36.5006 3.63444C36.6812 3.33044 36.7715 2.99484 36.7715 2.62764C36.7715 2.26043 36.6812 1.92633 36.5006 1.62535C36.323 1.32135 36.0837 1.08056 35.7827 0.902977C35.4818 0.722384 35.1462 0.632088 34.7759 0.632088C34.4087 0.632088 34.0731 0.722384 33.7691 0.902977C33.4682 1.08056 33.2274 1.32135 33.0468 1.62535C32.8692 1.92633 32.7804 2.26043 32.7804 2.62764C32.7804 2.99484 32.8692 3.33044 33.0468 3.63444C33.2274 3.93543 33.4682 4.17622 33.7691 4.35681C34.0731 4.53439 34.4087 4.62318 34.7759 4.62318ZM35.241 3.82406L34.8346 3.043C34.8346 3.043 34.8331 3.043 34.8301 3.043H34.4148V3.82406H33.8098V1.40412H34.8662C35.1612 1.40412 35.396 1.47937 35.5706 1.62986C35.7451 1.77735 35.8324 1.97901 35.8324 2.23485C35.8324 2.54787 35.694 2.77512 35.417 2.91658L35.9001 3.82406H35.241ZM34.4148 2.55088H34.8211C34.9445 2.55088 35.0423 2.52229 35.1146 2.4651C35.1868 2.4049 35.2229 2.32815 35.2229 2.23485C35.2229 2.13853 35.1868 2.06178 35.1146 2.00459C35.0423 1.94439 34.9445 1.91429 34.8211 1.91429H34.4148V2.55088Z" fill="#DBDBDB"/>
<path d="M16.8125 2.9248C22.2762 2.92485 26.2956 5.67775 28.9795 10.207C31.6795 14.7636 33.0176 21.1139 33.0176 28.1973C33.0175 35.2805 31.6795 41.63 28.9795 46.1865C26.2956 50.7159 22.2763 53.4687 16.8125 53.4688C11.3486 53.4688 7.32846 50.716 4.64453 46.1865C1.94469 41.63 0.607462 35.2803 0.607422 28.1973C0.607422 21.1139 1.94455 14.7636 4.64453 10.207C7.32846 5.6776 11.3486 2.9248 16.8125 2.9248Z" stroke="#DBDBDB" stroke-width="1.21521"/>
<path d="M10.7734 32.5093C10.7734 32.5093 11.6356 29.0587 16.8086 28.843C21.9817 28.6274 22.8439 25.1768 22.8439 25.1768" stroke="#FFDF58" stroke-width="1.09369"/>
<path d="M9.99219 25.2743V11.4668H12.2613L15.7622 20.3814C15.8486 20.5915 15.9505 20.8571 16.0678 21.1784C16.1913 21.4934 16.3148 21.8209 16.4383 22.1606C16.5679 22.4943 16.6822 22.8001 16.781 23.0781C16.8798 22.8001 16.9909 22.4943 17.1144 22.1606C17.244 21.8209 17.3675 21.4934 17.4848 21.1784C17.6083 20.8571 17.7102 20.5915 17.7905 20.3814L21.2358 11.4668H23.5142V25.2743H21.8749V17.2678C21.8749 16.7736 21.881 16.2237 21.8934 15.6183C21.9057 15.0067 21.9181 14.4013 21.9304 13.802C21.6649 14.531 21.421 15.1982 21.1988 15.8036C20.9765 16.4091 20.7912 16.8971 20.6431 17.2678L17.4385 25.2743H16.0678L12.8448 17.2678C12.7028 16.9157 12.5237 16.4554 12.3076 15.887C12.0915 15.3187 11.8507 14.6916 11.5852 14.0059C11.6037 14.5743 11.6161 15.1426 11.6222 15.711C11.6346 16.2793 11.6408 16.7983 11.6408 17.2678V25.2743H9.99219Z" fill="#DBDBDB"/>
<path d="M9.99219 31.9826V45.79H12.2613L15.7622 36.8754C15.8486 36.6654 15.9505 36.3997 16.0678 36.0785C16.1913 35.7634 16.3148 35.436 16.4383 35.0962C16.5679 34.7626 16.6822 34.4568 16.781 34.1788C16.8798 34.4568 16.9909 34.7626 17.1144 35.0962C17.244 35.436 17.3675 35.7634 17.4848 36.0785C17.6083 36.3997 17.7102 36.6654 17.7905 36.8754L21.2358 45.79H23.5142V31.9826H21.8749V39.989C21.8749 40.4833 21.881 41.0331 21.8934 41.6385C21.9057 42.2501 21.9181 42.8556 21.9304 43.4548C21.6649 42.7258 21.421 42.0586 21.1988 41.4532C20.9765 40.8478 20.7912 40.3597 20.6431 39.989L17.4385 31.9826H16.0678L12.8448 39.989C12.7028 40.3412 12.5237 40.8014 12.3076 41.3698C12.0915 41.9382 11.8507 42.5652 11.5852 43.2509C11.6037 42.6826 11.6161 42.1142 11.6222 41.5459C11.6346 40.9775 11.6408 40.4586 11.6408 39.989V31.9826H9.99219Z" fill="#DBDBDB"/>
</svg>
