<svg xmlns="http://www.w3.org/2000/svg" width="24" height="24" viewBox="0 0 24 24">
    <path
        d="M17.4317 18.2755C17.8885 15.3236 18.7883 8.91929 18.996 6.28419C19.0098 6.0507 18.9822 5.7505 18.996 5.65044C18.9822 5.51701 18.9406 5.33356 18.8022 5.20013C18.6361 5.03336 18.373 5 18.2623 5C17.7362 5 16.9471 5.33356 13.0985 7.26818C11.7557 7.9353 9.07 9.33623 5.02761 11.4543C4.37695 11.7712 4.03085 12.0714 4.00316 12.3716C3.94779 12.9553 4.62613 13.1388 5.49829 13.4723C6.20433 13.7558 7.14571 14.0727 7.64408 14.0894C8.08709 14.1061 8.58546 13.8726 9.13922 13.4223C12.9186 10.3536 14.8567 8.80254 14.9813 8.76919C15.0782 8.75251 15.189 8.71915 15.272 8.80254C15.303 8.84201 15.3254 8.88999 15.3375 8.94231C15.3496 8.99462 15.3509 9.0497 15.3412 9.10274C15.272 9.45298 11.728 13.3389 11.5203 13.5891C10.7313 14.5564 9.84525 15.1568 11.2158 16.2408C12.3925 17.1748 13.0847 17.7752 14.303 18.7425C15.0782 19.3596 15.6873 20.0767 16.4903 19.9934C16.8502 19.9433 17.2378 19.5264 17.4317 18.2755Z" />
</svg>