<svg xmlns="http://www.w3.org/2000/svg" width="24" height="24" viewBox="0 0 24 24">
    <path
        d="M21.8181 16.8622C21.4199 16.0843 19.8021 14.4086 19.8021 14.4086C18.3101 12.9428 18.3101 12.8449 19.7144 10.9132L20.4061 9.95534C21.9553 7.75371 22.0544 7.02783 21.9706 6.78987C21.9229 6.63989 21.6695 6.5819 21.2998 6.5819H17.9061C17.8243 6.58327 17.7437 6.60304 17.6698 6.63989C17.5707 6.70188 17.4869 6.86186 17.4583 6.91385C17.1378 7.7899 16.759 8.6412 16.3245 9.46142C14.9106 12.007 14.3885 12.007 14.2151 12.007C14.138 12.0086 14.0623 11.9856 13.9979 11.941C13.4999 11.5959 13.5214 10.7573 13.5404 10.0167L13.5406 10.0113L13.5463 9.6274C13.5463 9.07549 13.5634 8.60757 13.5806 8.19363C13.6358 6.73588 13.6225 6.30995 12.9937 6.15198C12.6831 6.06999 12.4621 6.012 11.6046 6H11.1644C10.3736 6 9.5771 6.03399 9.13502 6.26596C8.98461 6.34503 8.85454 6.46095 8.75582 6.6039C8.99973 6.65189 9.40179 6.78187 9.63808 7.12381C9.96773 7.59573 9.96964 8.57957 9.96964 8.67355C9.99822 9.17347 10.1183 11.5831 9.4742 11.959C9.39277 12.0051 9.30188 12.0299 9.20934 12.031C8.71581 12.031 8.10033 11.2791 7.09612 9.42743C6.47683 8.29162 6.09954 7.28179 5.99664 7.02783C5.90898 6.80987 5.78322 6.56391 5.39831 6.56391H2.51145C2.18942 6.56391 1.89407 6.75787 2.03698 7.11981C2.05603 7.1718 4.3236 12.7669 6.84269 15.5564C8.90064 17.834 11.2235 17.998 11.6694 17.998H12.9784C13.2204 17.998 13.5634 17.736 13.5634 17.2801C13.5634 15.8204 14.0322 15.2725 14.3981 15.1485C14.4565 15.1283 14.5176 15.1182 14.5791 15.1185C15.0631 15.1185 15.5433 15.7024 16.0978 16.3783L16.0999 16.3808C16.4708 16.834 16.8512 17.2987 17.2373 17.5821C17.7403 17.946 18.1557 18 18.3539 18H21.2122C21.3684 17.988 21.8258 17.852 21.9591 17.5761C22.0404 17.4108 22.0004 17.1861 21.8391 16.9022C21.8365 16.8929 21.8296 16.8795 21.8181 16.8622Z" />
</svg>