<svg width="16" height="16" viewBox="0 0 16 16" xmlns="http://www.w3.org/2000/svg">
    <path
        d="M4 8.01562C4.00521 7.85417 4.03646 7.70573 4.09375 7.57031C4.15625 7.4349 4.25 7.30469 4.375 7.17969L10.3906 1.29688C10.5885 1.09896 10.8307 1 11.1172 1C11.3151 1 11.4922 1.04688 11.6484 1.14062C11.8099 1.23438 11.9375 1.36198 12.0312 1.52344C12.1302 1.67969 12.1797 1.85417 12.1797 2.04688C12.1797 2.33854 12.0703 2.59375 11.8516 2.8125L6.5 8.01562L11.8516 13.2188C12.0703 13.4427 12.1797 13.6979 12.1797 13.9844C12.1797 14.1823 12.1302 14.3594 12.0312 14.5156C11.9375 14.6719 11.8099 14.7969 11.6484 14.8906C11.4922 14.9844 11.3151 15.0312 11.1172 15.0312C10.8307 15.0312 10.5885 14.9323 10.3906 14.7344L4.375 8.85156C4.24479 8.72656 4.14844 8.59635 4.08594 8.46094C4.02865 8.32031 4 8.17188 4 8.01562Z" />
</svg>