<svg width="16" height="16" viewBox="0 0 16 16" xmlns="http://www.w3.org/2000/svg">
    <path
        d="M12.1797 8.01562C12.1797 8.17188 12.1484 8.32031 12.0859 8.46094C12.0286 8.59635 11.9349 8.72656 11.8047 8.85156L5.79688 14.7344C5.59375 14.9323 5.34635 15.0312 5.05469 15.0312C4.86719 15.0312 4.69271 14.9844 4.53125 14.8906C4.36979 14.7969 4.23958 14.6719 4.14062 14.5156C4.04688 14.3594 4 14.1823 4 13.9844C4 13.6979 4.10938 13.4427 4.32812 13.2188L9.67969 8.01562L4.32812 2.8125C4.10938 2.59375 4 2.33854 4 2.04688C4 1.85417 4.04688 1.67969 4.14062 1.52344C4.23958 1.36198 4.36979 1.23438 4.53125 1.14062C4.69271 1.04688 4.86719 1 5.05469 1C5.34635 1 5.59375 1.09896 5.79688 1.29688L11.8047 7.17969C11.9297 7.30469 12.0234 7.4349 12.0859 7.57031C12.1484 7.70573 12.1797 7.85417 12.1797 8.01562Z" />
</svg>