<svg width="75" height="75" viewBox="0 0 75 75" fill="none" xmlns="http://www.w3.org/2000/svg">
<g clip-path="url(#clip0_1663_14716)">
<path d="M47.6974 31.237C47.4684 29.7614 46.9274 28.3893 46.1445 27.1898L37.4958 34.34V29.0135L31.741 24.2559C30.591 25.0309 29.6058 26.0319 28.8477 27.1948L37.4958 34.3446V39.6711L47.6974 31.237Z" fill="url(#paint0_radial_1663_14716)"/>
<path d="M47.6983 31.2366L37.4967 39.6707V34.3396L28.8486 27.1945C27.791 28.8168 27.1758 30.7546 27.1758 32.8365C27.1758 38.5451 31.7975 43.1729 37.4986 43.1729C43.1998 43.1729 47.8215 38.5451 47.8215 32.8365C47.8215 32.2923 47.7792 31.7581 47.6983 31.2366Z" fill="url(#paint1_radial_1663_14716)"/>
<path d="M37.497 29.0132V34.3396L46.1456 27.1894C44.3028 24.366 41.1187 22.5 37.4989 22.5C35.3673 22.5 33.3868 23.1471 31.7422 24.2555L37.497 29.0132Z" fill="url(#paint2_radial_1663_14716)"/>
<path fill-rule="evenodd" clip-rule="evenodd" d="M25.4716 46.7679C25.898 46.7675 26.3243 46.7662 26.7507 46.7684C26.7512 48.1485 26.7503 49.5281 26.7507 50.9078C27.2999 50.9043 27.849 50.9165 28.3972 50.9016C28.392 49.5237 28.3959 48.1458 28.3955 46.7684C28.8201 46.767 29.2452 46.7666 29.6702 46.7684C29.6694 48.148 29.6694 49.5281 29.6702 50.9078C30.218 50.9078 30.7659 50.9091 31.3137 50.9069C31.3159 49.5272 31.3124 48.1472 31.3154 46.7675C31.7396 46.7675 32.1642 46.767 32.5884 46.7675C32.591 48.491 32.5889 50.2144 32.5893 51.9379C30.2167 51.9362 27.8437 51.9392 25.4712 51.9362C25.4725 50.2136 25.4712 48.4905 25.4716 46.7679ZM15.3349 49.728C15.3327 50.1213 15.3331 50.5141 15.3344 50.9073C15.9517 50.9056 16.5698 50.9139 17.1871 50.903C17.3837 50.8938 17.6489 50.8675 17.7223 50.6479C17.776 50.4437 17.7782 50.2197 17.7188 50.0167C17.6358 49.7844 17.3597 49.7385 17.1439 49.7306C16.541 49.725 15.9377 49.7306 15.3349 49.728ZM14.0003 46.7679C15.5411 46.7675 17.0818 46.7666 18.6226 46.7684C18.5047 47.1117 18.3911 47.4564 18.2732 47.7998C17.2937 47.7998 16.3139 47.7998 15.3344 47.7998C15.3327 48.0977 15.334 48.3956 15.3336 48.6935C15.9797 48.6996 16.6258 48.6922 17.2723 48.6974C17.7131 48.7088 18.1832 48.7845 18.5353 49.0706C18.8354 49.3103 18.9813 49.6935 19.0127 50.0674C19.0486 50.4882 19.0084 50.9414 18.7686 51.3015C18.5689 51.6028 18.2316 51.7844 17.8861 51.864C17.5003 51.9598 17.1011 51.9344 16.7075 51.9375C15.8054 51.9375 14.9028 51.9375 14.0007 51.9375C13.9994 50.2144 14.0003 48.491 14.0003 46.7679ZM57.4428 49.5622C57.4432 50.011 57.4419 50.4594 57.4432 50.9082C58.0046 50.9047 58.5655 50.9143 59.1268 50.9034C59.3444 50.8973 59.6227 50.8356 59.6939 50.5963C59.752 50.3697 59.7564 50.1213 59.6913 49.8964C59.61 49.6423 59.3182 49.5666 59.0814 49.5627C58.5349 49.5583 57.9888 49.5596 57.4428 49.5622ZM56.113 46.7653C56.556 46.7701 56.9994 46.7662 57.4432 46.7675C57.4419 47.3536 57.4441 47.9398 57.4419 48.5259C58.0308 48.5325 58.6201 48.5242 59.2094 48.5299C59.6581 48.5386 60.1329 48.6305 60.4872 48.9249C60.7865 49.1712 60.9433 49.5526 60.983 49.9318C61.0302 50.3794 60.9883 50.8623 60.738 51.2481C60.5239 51.5823 60.1556 51.7883 59.7751 51.8718C59.5056 51.9379 59.2265 51.9414 58.9503 51.9375C58.0037 51.9375 57.057 51.937 56.1099 51.9379C56.1113 50.2136 56.1056 48.4892 56.113 46.7653ZM50.8148 46.7666C52.4102 46.7688 54.0056 46.7662 55.601 46.7679C55.6006 47.1122 55.6014 47.456 55.6006 47.8003C55.0523 47.7998 54.5041 47.7989 53.9558 47.8007C53.9545 49.1795 53.9554 50.5587 53.9554 51.9375C53.5111 51.937 53.0668 51.9375 52.6225 51.9375C52.6212 50.5582 52.6225 49.1795 52.6221 47.8007C52.1346 47.7994 51.6475 47.7989 51.1604 47.8011C51.0433 47.4569 50.921 47.1144 50.8148 46.7666ZM39.5414 46.7697C40.9594 46.764 42.377 46.7697 43.795 46.767C43.6889 47.1139 43.567 47.456 43.4508 47.7998C42.5924 47.8003 41.7335 47.7994 40.8746 47.7998C40.8747 48.1156 40.8742 48.4315 40.8755 48.7473C41.685 48.7477 42.4945 48.7464 43.304 48.7477C43.304 49.0915 43.304 49.4349 43.304 49.7788C42.4941 49.7792 41.6846 49.7788 40.8746 49.7792C40.8747 50.155 40.8746 50.5311 40.8746 50.9073C41.8126 50.9091 42.7505 50.9073 43.6889 50.9082C43.6897 51.2512 43.6893 51.5941 43.6889 51.9375C42.3058 51.9353 40.9232 51.9423 39.5401 51.934C39.5436 50.2122 39.5414 48.491 39.5414 46.7697ZM33.5128 46.7697C33.9571 46.7653 34.4018 46.7675 34.8465 46.7684C34.8465 47.428 34.8461 48.0872 34.847 48.7469C35.6604 48.7477 36.4738 48.7469 37.2877 48.7473C37.289 48.0872 37.2877 47.4276 37.2881 46.7675C37.7324 46.7666 38.1762 46.7684 38.6205 46.7666C38.6235 48.4901 38.6209 50.214 38.6218 51.9375C38.1771 51.9375 37.7328 51.9375 37.2885 51.9375C37.2855 51.2175 37.2933 50.4974 37.2846 49.7779C36.472 49.7814 35.6595 49.7766 34.8465 49.7805C34.8474 50.4979 34.8443 51.2157 34.8483 51.9335C34.4044 51.9432 33.9606 51.9331 33.5167 51.9388C33.508 50.2158 33.5167 48.4927 33.5128 46.7697ZM21.3036 49.6143C21.7924 49.6147 22.2813 49.6143 22.7701 49.6147C22.5661 48.9931 22.3621 48.372 22.1576 47.7508C22.0712 47.7495 21.9847 47.7487 21.8982 47.7482C21.6985 48.3698 21.5024 48.9922 21.3036 49.6143ZM20.955 46.767C21.6221 46.767 22.2887 46.7688 22.9558 46.7662C23.0021 46.7762 23.0894 46.7399 23.1034 46.8091C23.7199 48.5176 24.3306 50.2284 24.9452 51.9379C24.4747 51.937 24.0042 51.9375 23.5337 51.9375C23.3927 51.5062 23.2485 51.0762 23.11 50.6444C22.3997 50.6401 21.6898 50.6449 20.9795 50.6423C20.8379 51.0722 20.7042 51.5053 20.5658 51.9366C20.1136 51.9379 19.661 51.9379 19.2089 51.9366C19.7908 50.2136 20.3718 48.4901 20.955 46.767ZM48.0587 47.7902C48.057 48.833 48.0574 49.8759 48.0587 50.9183C48.4204 50.9178 48.8154 50.9445 49.1356 50.7437C49.4117 50.5692 49.5383 50.2416 49.5921 49.9327C49.6572 49.5167 49.6541 49.0876 49.575 48.6738C49.5156 48.3746 49.3741 48.061 49.0915 47.9144C48.773 47.7513 48.4034 47.7954 48.0587 47.7902ZM45.6687 48.0098C45.3297 48.3173 45.2821 48.8107 45.2659 49.2412C45.262 49.711 45.2803 50.2424 45.6084 50.6134C45.9234 50.9498 46.4227 50.9204 46.8447 50.9187C46.8451 49.8759 46.8451 48.833 46.8447 47.7902C46.4489 47.7959 45.995 47.736 45.6687 48.0098ZM46.8456 46.2072C46.8447 46.3795 46.8456 46.5518 46.8434 46.7246C46.1357 46.6949 45.3708 46.8047 44.8146 47.2797C44.2437 47.7539 44.0191 48.5207 44.0073 49.2403C43.9781 50.0557 44.2363 50.9375 44.8928 51.4629C45.435 51.9069 46.165 52.0114 46.8447 51.9843C46.8447 52.1553 46.8447 52.3268 46.8451 52.4983C47.2488 52.5 47.6525 52.4969 48.0561 52.5C48.0587 52.3277 48.0574 52.1558 48.0583 51.9843C48.7319 52.0101 49.454 51.909 49.9944 51.4725C50.6597 50.9502 50.9223 50.0609 50.893 49.2416C50.8817 48.519 50.6545 47.7499 50.0805 47.2754C49.5244 46.8034 48.763 46.6975 48.0578 46.7224C48.0574 46.5501 48.0596 46.3773 48.0548 46.205C47.6516 46.2085 47.2484 46.205 46.8456 46.2072Z" fill="white"/>
</g>
<defs>
<radialGradient id="paint0_radial_1663_14716" cx="0" cy="0" r="1" gradientUnits="userSpaceOnUse" gradientTransform="translate(38.6253 31.5197) scale(8.44055 8.45169)">
<stop stop-color="#FCFEFA"/>
<stop offset="1" stop-color="#D6D7D6"/>
</radialGradient>
<radialGradient id="paint1_radial_1663_14716" cx="0" cy="0" r="1" gradientUnits="userSpaceOnUse" gradientTransform="translate(37.8851 34.7238) scale(9.02698 9.03889)">
<stop stop-color="#7BB631"/>
<stop offset="1" stop-color="#027E40"/>
</radialGradient>
<radialGradient id="paint2_radial_1663_14716" cx="0" cy="0" r="1" gradientUnits="userSpaceOnUse" gradientTransform="translate(39.8001 24.9779) scale(9.37783 9.3902)">
<stop stop-color="#DF176E"/>
<stop offset="1" stop-color="#A30372"/>
</radialGradient>
<clipPath id="clip0_1663_14716">
<rect width="47" height="30" fill="white" transform="translate(14 22.5)"/>
</clipPath>
</defs>
</svg>
