<svg width="45" height="45" viewBox="0 0 45 45" fill="#006FDD" xmlns="http://www.w3.org/2000/svg">
    <path d="M16.4087 12.129C13.3405 14.968 11.3185 18.0624 11.3185 22.5C11.3185 25.5344 12.3087 27.7914 13.911 29.9042L20.9059 24.4367V12.129H25.1246V33.0046H20.9059V29.7052L16.6854 33.0018L16.6864 33.0046H10.9858C8.57114 30.1767 7.09993 26.5157 7.09991 22.5C7.09991 18.5468 8.52443 14.9381 10.8727 12.129H16.4087Z" />
    <path fill-rule="evenodd" clip-rule="evenodd" d="M22.4496 0C31.6562 0 39.5608 5.55919 43.0244 13.5083C43.1383 13.7519 43.2618 14.0166 43.3922 14.3228C43.3995 14.3413 43.4122 14.3502 43.4195 14.3689L43.3902 14.3928L43.3923 14.3947L39.9558 17.1763V17.1735L33.2972 22.5663L43.2275 30.609L43.2192 30.6321L43.3388 30.7297C40.0595 39.0814 31.9481 45 22.4496 45C10.052 45 0 34.9265 0 22.5C0 10.0745 10.052 0 22.4496 0ZM22.4496 4.15541C12.3563 4.15541 4.14433 12.3839 4.14433 22.5C4.14439 32.617 12.3563 40.8455 22.4496 40.8455C29.1728 40.8455 35.0243 37.2714 38.1962 31.8732L30.9227 25.9828V33.0046H26.704V12.129H30.9227V19.1499L38.2275 13.2337C35.0483 7.80749 29.1699 4.15541 22.4496 4.15541Z" />
</svg>
