<svg width="771" height="311" viewBox="0 0 771 311" fill="none" xmlns="http://www.w3.org/2000/svg">
<path d="M203.654 192.407H248.816V239.649H203.654V305.789H145.711V239.649H0V196.272L109.922 5.15374H203.654V192.407ZM56.2393 192.407H145.711V36.9352L56.2393 192.407Z" fill="black"/>
<path d="M295.772 269.713C275.321 242.226 265.096 204.146 265.096 155.472C265.096 106.797 275.321 68.7167 295.772 41.23C316.223 13.7433 345.479 0 383.539 0C421.6 0 450.856 13.7433 471.307 41.23C491.757 68.7167 501.983 106.797 501.983 155.472C501.983 204.146 491.757 242.226 471.307 269.713C450.856 297.2 421.6 310.943 383.539 310.943C345.479 310.943 316.223 297.2 295.772 269.713ZM339.23 75.1589C328.436 93.7697 323.04 120.541 323.04 155.472C323.04 190.403 328.436 217.173 339.23 235.784C350.023 254.395 364.793 263.7 383.539 263.7C402.286 263.7 417.056 254.395 427.849 235.784C438.927 217.173 444.465 190.403 444.465 155.472C444.465 120.541 438.927 93.7697 427.849 75.1589C417.056 56.5481 402.286 47.2427 383.539 47.2427C364.793 47.2427 350.023 56.5481 339.23 75.1589Z" fill="black"/>
<path d="M725.838 192.407H771V239.649H725.838V305.789H667.895V239.649H522.184V196.272L632.106 5.15374H725.838V192.407ZM578.423 192.407H667.895V36.9352L578.423 192.407Z" fill="black"/>
</svg>
