<svg width="150" height="150" viewBox="0 0 150 150" fill="none" xmlns="http://www.w3.org/2000/svg">
<g clip-path="url(#clip0_3046_1128)">
<path d="M50.8774 59.0285C49.8268 54.3894 47.19 50.6137 46.8295 50C46.2527 50.8633 44.1618 54.2022 43.0906 57.8947C41.937 62.0137 41.7619 65.6751 42.1636 69.274C42.5653 72.8729 44.0691 76.5758 44.0691 76.5758C44.8725 78.5209 46.0776 80.6012 46.8501 81.6206C47.9934 80.1123 50.6302 75.6293 51.4542 69.7732C51.9074 66.5176 51.9177 63.6676 50.8774 59.0285ZM46.8295 80.466C46.3145 79.4882 45.5111 77.616 45.4287 74.7244C45.4081 71.9368 46.5205 69.5444 46.8398 69.0451C47.1282 69.5444 48.0861 71.6247 48.1994 74.4747C48.2818 77.2623 47.3651 79.4674 46.8295 80.466ZM50.5684 66.9128C50.5375 68.6811 50.3315 70.5534 50.0534 71.6663C50.1564 69.742 49.9298 67.0273 49.4766 64.9053C49.044 62.7834 47.808 59.2469 46.8089 57.6035C45.8922 59.1637 44.7695 62.2218 44.1721 64.8845C43.585 67.5473 43.5644 70.7614 43.5644 71.7183C43.3996 70.907 43.0185 68.005 43.1318 65.0926C43.2245 62.6898 43.7704 60.2247 44.0794 59.0805C45.2433 55.284 46.5617 52.8604 46.8089 52.4756C47.0561 52.8604 48.7247 55.8456 49.5796 58.9869C50.4448 62.1281 50.6096 65.1342 50.5684 66.9128ZM48.6114 82.7023H53.1331V94.5184C50.0122 97.8885 45.5626 99.9896 40.6289 99.9896C31.1735 100 23.5 92.2509 23.5 82.7023C23.5 73.1537 31.1735 65.4046 40.6289 65.4046V78.4065C38.1672 78.4065 35.7055 79.353 33.8309 81.2565C33.388 81.7038 32.9966 82.1926 32.6567 82.7023C30.1332 86.4781 30.5246 91.6476 33.8309 94.9969C35.7055 96.89 38.1672 97.8365 40.6289 97.8365C43.0803 97.8365 45.542 96.9004 47.4063 95.0177C47.4166 95.0073 47.4269 94.9969 47.4372 94.9969C47.4475 94.9865 47.4475 94.9865 47.4578 94.9761C49.3324 93.0726 49.3324 89.9938 47.4578 88.1007C45.5832 86.1972 42.5241 86.1972 40.6495 88.1007C40.6495 88.1111 40.6392 88.1111 40.6289 88.1215V82.7127H48.6114V82.7023ZM63.2477 96.9108C63.2477 98.1173 63.1035 100 60.6933 100H57.8505C55.4609 100 55.3064 98.1173 55.3064 96.9108V85.7916C55.3064 84.585 55.4506 82.7023 57.8505 82.7023H60.6933C63.0932 82.7023 63.2477 84.585 63.2477 85.7916V88.2359H59.8178V85.4171C59.8178 85.1259 59.6015 84.845 59.2822 84.845C59.0865 84.845 58.7466 84.9698 58.7466 85.4171V97.2124C58.7466 97.6597 59.0865 97.7845 59.2822 97.7845C59.6015 97.7845 59.8178 97.514 59.8178 97.2124V93.4263H59.3028V91.5228H63.258V96.9108H63.2477ZM64.6176 100L66.3995 82.7023H71.7761L73.558 100H70.2002L69.8809 95.4025H68.2638L67.9548 100H64.6176ZM68.408 93.4991H69.7779L69.1805 84.8554H68.9848L68.408 93.4991ZM74.8352 97.8261L78.1209 84.8554H75.1751V82.7023H81.6332V84.8554L78.3578 97.7845H81.8392V100H74.8352V97.8261ZM83.446 100V82.7023H88.8432C91.2328 82.7023 91.3873 84.585 91.3873 85.7916V91.0339C91.3873 92.2405 91.2431 94.1232 88.8432 94.1232H86.8862V100H83.446ZM86.8862 91.9596H87.3188C87.6999 91.9596 87.9574 91.6372 87.9574 91.0963V85.7187C87.9574 85.1779 87.6896 84.8554 87.3188 84.8554H86.8862V91.9596ZM101.512 100H97.9896L96.8257 93.6031H96.5785V100H93.1589V82.7023H98.5355C100.935 82.7023 101.08 84.585 101.08 85.7916V91.1483C101.08 91.6164 101.059 92.7502 99.8436 93.2494L101.512 100ZM96.5682 91.45H97.0111C97.3819 91.45 97.6394 91.1275 97.6394 90.5866V85.7187C97.6394 85.1779 97.3716 84.8554 97.0111 84.8554H96.5682V91.45ZM103.356 96.9108V85.7916C103.356 84.585 103.5 82.7023 105.91 82.7023H108.743C111.143 82.7023 111.297 84.585 111.297 85.7916V96.9108C111.297 98.1173 111.153 100 108.743 100H105.91C103.51 100 103.356 98.1277 103.356 96.9108ZM107.857 97.2124V85.4171C107.857 85.1259 107.641 84.845 107.321 84.845C107.126 84.845 106.786 84.9698 106.786 85.4171V97.2124C106.786 97.6597 107.126 97.7845 107.321 97.7845C107.641 97.7845 107.857 97.514 107.857 97.2124ZM122.05 82.7023H126.5V100H123.08V89.1512H122.957L121.196 100H118.456L116.694 89.1512H116.571V100H113.151V82.7023H117.601L119.826 94.8617L122.05 82.7023Z" fill="#007AC6"/>
</g>
<defs>
<clipPath id="clip0_3046_1128">
<rect width="103" height="50" fill="white" transform="translate(23.5 50)"/>
</clipPath>
</defs>
</svg>
